<?xml version="1.0" encoding="UTF-8" standalone="no"?>
<!-- Created with Inkscape (http://www.inkscape.org/) -->

<svg
   width="512"
   height="512"
   viewBox="0 0 512 512"
   version="1.1"
   id="svg1"
   sodipodi:docname="logo.svg"
   inkscape:version="1.4.2 (ebf0e940d0, 2025-05-08)"
   xmlns:inkscape="http://www.inkscape.org/namespaces/inkscape"
   xmlns:sodipodi="http://sodipodi.sourceforge.net/DTD/sodipodi-0.dtd"
   xmlns="http://www.w3.org/2000/svg"
   xmlns:svg="http://www.w3.org/2000/svg">
  <sodipodi:namedview
     id="namedview1"
     pagecolor="#ffffff"
     bordercolor="#111111"
     borderopacity="1"
     inkscape:showpageshadow="0"
     inkscape:pageopacity="0"
     inkscape:pagecheckerboard="1"
     inkscape:deskcolor="#d1d1d1"
     inkscape:zoom="1.5234375"
     inkscape:cx="256"
     inkscape:cy="256"
     inkscape:window-width="2560"
     inkscape:window-height="1006"
     inkscape:window-x="0"
     inkscape:window-y="0"
     inkscape:window-maximized="1"
     inkscape:current-layer="svg1" />
  <defs
     id="defs1" />
  <g
     id="layer1">
    <path
       id="path2"
       style="fill:#c9cbd0;fill-opacity:1;fill-rule:nonzero;stroke-width:1.48289"
       d="M 256,0 A 256,256 0 0 0 0,256 256,256 0 0 0 256,512 256,256 0 0 0 512,256 256,256 0 0 0 256,0 Z m 74.26562,123.43555 c 8.53335,0 15.2,3.99999 20,12 4.97779,7.82223 7.4668,19.11161 7.4668,33.86718 0,21.15558 -5.86626,45.68847 -17.59961,73.59961 -11.55557,27.91115 -27.37788,55.46599 -47.46679,82.66602 1.24444,7.28889 3.46796,12.53437 6.66796,15.73437 3.2,3.2 7.55529,4.79883 13.06641,4.79883 3.02223,0 6.39947,-0.88823 10.13281,-2.66601 3.91112,-1.77778 7.46601,-4.08915 10.66602,-6.9336 1.95555,-1.77778 3.91163,-2.66601 5.86719,-2.66601 2.13333,0 3.82196,1.24353 5.0664,3.73242 1.42223,2.31111 2.13282,5.15542 2.13281,8.5332 0,7.46668 -2.66666,13.42274 -8,17.86719 -9.24445,7.64445 -19.73149,11.4668 -31.46484,11.4668 -16.88891,0 -29.24612,-7.02195 -37.06836,-21.06641 C 261.91019,340.1469 258,321.65792 258,298.90234 c 0,-21.68892 2.7545,-46.39944 8.26562,-74.13281 5.6889,-27.73337 13.95633,-51.55566 24.80079,-71.4668 11.02223,-19.91113 24.08808,-29.86718 39.19921,-29.86718 z m -5.86523,26.40039 c -4.0889,0 -8.71163,7.37724 -13.86719,22.13281 -5.15556,14.75557 -9.68849,33.0669 -13.59961,54.93359 -3.91112,21.8667 -6.04483,42.84468 -6.40039,62.9336 12.62224,-20.80003 22.66614,-41.60037 30.13282,-62.40039 7.46667,-20.9778 11.20117,-40.08952 11.20117,-57.33399 0,-13.51112 -2.48902,-20.26562 -7.4668,-20.26562 z m -203.20117,99.73242 c 4.62223,0 7.99947,1.06783 10.13281,3.20117 2.31111,1.95555 3.4668,5.33281 3.4668,10.13281 0,20.44448 1.24548,47.02323 3.73437,79.73438 7.64446,-13.15557 14.22131,-25.15749 19.73242,-36.00195 5.68891,-11.02224 11.82261,-25.50927 18.4004,-43.46485 1.95555,-5.33334 4.53241,-8.89019 7.73242,-10.66797 3.2,-1.95556 7.2,-2.93359 12,-2.93359 9.77779,0 14.66797,3.11175 14.66797,9.33398 0,2.13334 -0.71059,5.06745 -2.13282,8.80078 -14.40001,33.60005 -28.00076,60.70979 -40.80078,81.33204 -6.22222,10.13334 -12.17829,17.06744 -17.86719,20.80078 -5.6889,3.73333 -11.91045,5.59961 -18.66601,5.59961 -7.46668,0 -13.33294,-2.75451 -17.59961,-8.26563 -4.26667,-5.6889 -6.93333,-14.75671 -8,-27.20117 -2.13333,-24.88892 -3.20117,-46.6673 -3.20117,-65.33398 v -9.33204 c 0.17778,-5.86668 1.77855,-9.95646 4.80078,-12.26757 3.02223,-2.31112 7.55516,-3.4668 13.59961,-3.4668 z m 100.26758,76.26758 c 7.82223,0 13.68849,1.95607 17.59961,5.86718 4.08889,3.73334 6.13281,9.33215 6.13281,16.79883 0,8.17779 -2.31137,14.7566 -6.9336,19.73438 -4.62222,4.8 -10.93358,7.19922 -18.93359,7.19922 -7.82223,0 -13.77634,-2.13373 -17.86523,-6.40039 -3.91112,-4.26668 -5.86719,-9.86549 -5.86719,-16.79883 0,-8.00001 2.22156,-14.40117 6.66601,-19.20117 4.62223,-4.80001 11.02339,-7.19922 19.20118,-7.19922 z m 164,0 c 7.82223,0 13.68849,1.95607 17.59961,5.86718 4.08889,3.73334 6.13476,9.33215 6.13476,16.79883 0,8.17779 -2.31137,14.7566 -6.93359,19.73438 -4.62223,4.8 -10.93358,7.19922 -18.9336,7.19922 -7.82223,0 -13.77829,-2.13373 -17.86718,-6.40039 -3.91112,-4.26668 -5.86719,-9.86549 -5.86719,-16.79883 0,-8.00001 2.22352,-14.40117 6.66797,-19.20117 4.62223,-4.80001 11.02143,-7.19922 19.19922,-7.19922 z" />
  </g>
</svg>
