<?xml version="1.0" encoding="UTF-8" standalone="no"?>
<svg
   viewBox="0 0 1440 120"
   version="1.1"
   id="svg1"
   width="1440"
   height="120"
   xmlns="http://www.w3.org/2000/svg"
   xmlns:svg="http://www.w3.org/2000/svg">
  <defs
     id="defs1" />
  <path
     fill="#0f172a"
     fill-opacity="1"
     d="m 0,104.40877 48,4.36396 c 48,4.20082 144,13.17345 240,10.84873 96,-2.16159 192,-15.21269 288,-34.789333 96,-19.576644 192,-45.678837 288,-43.51725 96,2.324727 192,32.505388 288,41.355662 96,8.687137 192,-4.36396 240,-10.889508 l 48,-6.525548 V 0 h -48 C 1344,0 1248,0 1152,0 1056,0 960,0 864,0 768,0 672,0 576,0 480,0 384,0 288,0 192,0 96,0 48,0 H 0 Z"
     id="path1"
     style="stroke-width:0.638629" />
</svg>
