<?xml version="1.0" encoding="UTF-8" standalone="no"?>
<svg
   viewBox="0 0 1440 120"
   version="1.1"
   id="svg1"
   width="1440"
   height="120"
   xmlns="http://www.w3.org/2000/svg"
   xmlns:svg="http://www.w3.org/2000/svg">
  <defs
     id="defs1" />
  <path
     fill="#0f172a"
     fill-opacity="1"
     d="M 0,61.735263 48,45.530383 C 96,29.568273 192,-3.2056475 288,0.25382254 384,3.4705225 480,42.313683 576,42.313683 c 96,0 192,-38.8431605 288,-35.6264605 96,3.4594705 192,48.3718705 288,55.0480405 96,6.67617 192,-26.09775 240,-42.05986 L 1440,3.4705225 V 120 h -48 c -48,0 -144,0 -240,0 -96,0 -192,0 -288,0 -96,0 -192,0 -288,0 -96,0 -192,0 -288,0 -96,0 -192,0 -240,0 H 0 Z"
     id="path1"
     style="stroke-width:0.779054" />
</svg>
