<?xml version="1.0" encoding="UTF-8" standalone="no"?>
<svg
   viewBox="0 0 1440 120"
   version="1.1"
   id="svg1"
   width="1440"
   height="120"
   xmlns="http://www.w3.org/2000/svg"
   xmlns:svg="http://www.w3.org/2000/svg">
  <defs
     id="defs1" />
  <path
     fill="#0f172a"
     fill-opacity="1"
     d="M 0,119.22392 48,105.01285 C 96,91.014689 192,62.273208 288,65.307031 c 96,2.820923 192,36.884899 288,36.884899 96,0 192,-34.063976 288,-31.243053 96,3.033823 192,42.420293 288,48.275043 96,5.85475 192,-22.886735 240,-36.8849 l 48,-14.211066 V 0 h -48 C 1344,0 1248,0 1152,0 1056,0 960,0 864,0 768,0 672,0 576,0 480,0 384,0 288,0 192,0 96,0 48,0 H 0 Z"
     id="path1"
     style="stroke-width:0.729554" />
</svg>
