<?xml version="1.0" standalone="no"?><svg xmlns="http://www.w3.org/2000/svg" viewBox="0 0 1440 320"><path fill="#0f172a" fill-opacity="1" d="M0,0L6.2,26.7C12.3,53,25,107,37,128C49.2,149,62,139,74,117.3C86.2,96,98,64,111,90.7C123.1,117,135,203,148,213.3C160,224,172,160,185,149.3C196.9,139,209,181,222,197.3C233.8,213,246,203,258,197.3C270.8,192,283,192,295,192C307.7,192,320,192,332,181.3C344.6,171,357,149,369,122.7C381.5,96,394,64,406,90.7C418.5,117,431,203,443,240C455.4,277,468,267,480,234.7C492.3,203,505,149,517,144C529.2,139,542,181,554,186.7C566.2,192,578,160,591,133.3C603.1,107,615,85,628,85.3C640,85,652,107,665,133.3C676.9,160,689,192,702,197.3C713.8,203,726,181,738,160C750.8,139,763,117,775,106.7C787.7,96,800,96,812,85.3C824.6,75,837,53,849,64C861.5,75,874,117,886,149.3C898.5,181,911,203,923,181.3C935.4,160,948,96,960,74.7C972.3,53,985,75,997,112C1009.2,149,1022,203,1034,208C1046.2,213,1058,171,1071,133.3C1083.1,96,1095,64,1108,53.3C1120,43,1132,53,1145,90.7C1156.9,128,1169,192,1182,234.7C1193.8,277,1206,299,1218,277.3C1230.8,256,1243,192,1255,154.7C1267.7,117,1280,107,1292,117.3C1304.6,128,1317,160,1329,160C1341.5,160,1354,128,1366,101.3C1378.5,75,1391,53,1403,64C1415.4,75,1428,117,1434,138.7L1440,160L1440,0L1433.8,0C1427.7,0,1415,0,1403,0C1390.8,0,1378,0,1366,0C1353.8,0,1342,0,1329,0C1316.9,0,1305,0,1292,0C1280,0,1268,0,1255,0C1243.1,0,1231,0,1218,0C1206.2,0,1194,0,1182,0C1169.2,0,1157,0,1145,0C1132.3,0,1120,0,1108,0C1095.4,0,1083,0,1071,0C1058.5,0,1046,0,1034,0C1021.5,0,1009,0,997,0C984.6,0,972,0,960,0C947.7,0,935,0,923,0C910.8,0,898,0,886,0C873.8,0,862,0,849,0C836.9,0,825,0,812,0C800,0,788,0,775,0C763.1,0,751,0,738,0C726.2,0,714,0,702,0C689.2,0,677,0,665,0C652.3,0,640,0,628,0C615.4,0,603,0,591,0C578.5,0,566,0,554,0C541.5,0,529,0,517,0C504.6,0,492,0,480,0C467.7,0,455,0,443,0C430.8,0,418,0,406,0C393.8,0,382,0,369,0C356.9,0,345,0,332,0C320,0,308,0,295,0C283.1,0,271,0,258,0C246.2,0,234,0,222,0C209.2,0,197,0,185,0C172.3,0,160,0,148,0C135.4,0,123,0,111,0C98.5,0,86,0,74,0C61.5,0,49,0,37,0C24.6,0,12,0,6,0L0,0Z"></path></svg>