<?xml version="1.0" encoding="UTF-8" standalone="no"?>
<svg
   viewBox="0 0 1440 120"
   version="1.1"
   id="svg1"
   width="1440"
   height="120"
   xmlns="http://www.w3.org/2000/svg"
   xmlns:svg="http://www.w3.org/2000/svg">
  <defs
     id="defs1" />
  <path
     fill="#0f172a"
     fill-opacity="1"
     d="m 0,59.999991 60,10.03126 c 60,9.65624 180,30.281249 300,24.93749 120,-4.96874 240,-34.96875 360,-34.96875 120,0 240,30.00001 360,25.03126 120,-5.34376 240,-44.71876 300,-65.06251 L 1440,8e-7 V 120 h -60 c -60,0 -180,0 -300,0 -120,0 -240,0 -360,0 -120,0 -240,0 -360,0 -120,0 -240,0 -300,0 H 0 Z"
     id="path1"
     style="stroke-width:0.968246" />
</svg>
