<?xml version="1.0" encoding="UTF-8" standalone="no"?>
<svg
   viewBox="0 0 1440 120"
   version="1.1"
   id="svg1"
   width="1440"
   height="120"
   xmlns="http://www.w3.org/2000/svg"
   xmlns:svg="http://www.w3.org/2000/svg">
  <defs
     id="defs1" />
  <path
     fill="#0f172a"
     fill-opacity="1"
     d="m 0,84.932941 48,5.86277 c 48,5.64361 144,17.697909 240,14.574749 96,-2.90399 192,-20.437519 288,-46.737819 96,-26.30029 192,-61.3673499 288,-58.46335994 96,3.12316004 192,43.66944994 288,55.55936994 96,11.67076 192,-5.86277 240,-14.62954 l 48,-8.76676 V 120 h -48 c -48,0 -144,0 -240,0 -96,0 -192,0 -288,0 -96,0 -192,0 -288,0 -96,0 -192,0 -288,0 -96,0 -192,0 -240,0 H 0 Z"
     id="path1"
     style="stroke-width:0.740218" />
</svg>
