<svg id="Layer_1" viewBox="0 0 24 24" xmlns="http://www.w3.org/2000/svg" data-name="Layer 1"><path d="m17 15c-1.103 0-2 .897-2 2s.897 2 2 2 2-.897 2-2-.897-2-2-2zm0 3c-.551 0-1-.448-1-1s.449-1 1-1 1 .448 1 1-.449 1-1 1zm5.506.478-.646-.377c.094-.386.14-.748.14-1.101s-.046-.715-.14-1.101l.646-.377c.346-.202.593-.526.695-.914s.046-.792-.156-1.138c-.417-.714-1.337-.957-2.052-.539l-.64.374c-.537-.488-1.167-.851-1.853-1.068v-.738c0-.827-.673-1.5-1.5-1.5s-1.5.673-1.5 1.5v.738c-.687.217-1.316.58-1.853 1.068l-.641-.374c-.716-.417-1.635-.175-2.051.539-.202.346-.257.75-.156 1.138.102.388.349.712.695.914l.646.377c-.094.386-.14.748-.14 1.101s.046.715.14 1.101l-.646.377c-.346.202-.593.526-.695.914s-.046.792.156 1.138c.416.715 1.336.957 2.052.539l.64-.374c.537.488 1.167.852 1.853 1.067v.738c0 .827.673 1.5 1.5 1.5s1.5-.673 1.5-1.5v-.738c.686-.216 1.316-.579 1.853-1.067l.641.374c.715.418 1.635.175 2.051-.539.202-.346.257-.75.156-1.138-.102-.388-.349-.712-.695-.914zm-.324 1.548c-.14.237-.447.317-.684.18l-.971-.567c-.201-.117-.458-.08-.617.09-.55.586-1.249.989-2.021 1.165-.228.052-.389.254-.389.487v1.12c0 .275-.224.5-.5.5s-.5-.225-.5-.5v-1.12c0-.233-.162-.436-.389-.487-.772-.176-1.471-.579-2.021-1.165-.097-.104-.23-.158-.365-.158-.086 0-.174.022-.252.068l-.97.567c-.238.138-.545.059-.684-.18-.14-.23-.055-.554.18-.685l.979-.571c.202-.117.295-.358.225-.581-.138-.44-.202-.818-.202-1.188s.064-.748.202-1.188c.07-.223-.023-.464-.225-.581l-.979-.571c-.235-.131-.32-.455-.18-.685.138-.238.445-.318.684-.18l.971.567c.2.118.458.08.617-.09.549-.586 1.249-.988 2.021-1.165.228-.052.389-.254.389-.487v-1.12c0-.276.224-.5.5-.5s.5.224.5.5v1.12c0 .233.161.436.389.487.773.177 1.472.579 2.021 1.165.16.17.417.208.617.09l.97-.567c.237-.138.545-.06.684.18.14.23.055.554-.18.685l-.979.571c-.202.117-.295.358-.225.581.138.44.202.818.202 1.188s-.064.748-.202 1.188c-.07.223.023.464.225.581l.979.571c.235.131.32.455.18.685zm-11.745 2.853c-.63.081-1.282.122-1.937.122-4.065 0-7.5-1.603-7.5-3.5v-2.851c1.419 1.411 4.213 2.351 7.5 2.351.276 0 .5-.224.5-.5s-.224-.5-.5-.5c-4.065 0-7.5-1.603-7.5-3.5v-2.851c1.419 1.411 4.213 2.351 7.5 2.351.276 0 .5-.224.5-.5s-.224-.5-.5-.5c-4.065 0-7.5-1.603-7.5-3.5v-2.851c1.419 1.411 4.213 2.351 7.5 2.351s6.081-.94 7.5-2.351v.851c0 .276.224.5.5.5s.5-.224.5-.5v-3c0-2.524-3.733-4.501-8.5-4.501s-8.5 1.977-8.5 4.5v15c0 2.523 3.733 4.5 8.5 4.5.697 0 1.391-.044 2.063-.13.274-.035.468-.286.433-.56s-.284-.467-.56-.433zm-1.937-21.879c4.065 0 7.5 1.603 7.5 3.5s-3.435 3.5-7.5 3.5-7.5-1.603-7.5-3.5 3.435-3.5 7.5-3.5z"/></svg>