<?xml version="1.0" standalone="no"?><svg xmlns="http://www.w3.org/2000/svg" viewBox="0 0 1440 320"><path fill="#0f172a" fill-opacity="1" d="M0,32L6.2,26.7C12.3,21,25,11,37,42.7C49.2,75,62,149,74,154.7C86.2,160,98,96,111,69.3C123.1,43,135,53,148,90.7C160,128,172,192,185,202.7C196.9,213,209,171,222,154.7C233.8,139,246,149,258,138.7C270.8,128,283,96,295,101.3C307.7,107,320,149,332,192C344.6,235,357,277,369,272C381.5,267,394,213,406,186.7C418.5,160,431,160,443,181.3C455.4,203,468,245,480,240C492.3,235,505,181,517,181.3C529.2,181,542,235,554,218.7C566.2,203,578,117,591,106.7C603.1,96,615,160,628,176C640,192,652,160,665,176C676.9,192,689,256,702,250.7C713.8,245,726,171,738,122.7C750.8,75,763,53,775,48C787.7,43,800,53,812,85.3C824.6,117,837,171,849,181.3C861.5,192,874,160,886,160C898.5,160,911,192,923,197.3C935.4,203,948,181,960,192C972.3,203,985,245,997,250.7C1009.2,256,1022,224,1034,192C1046.2,160,1058,128,1071,112C1083.1,96,1095,96,1108,85.3C1120,75,1132,53,1145,90.7C1156.9,128,1169,224,1182,218.7C1193.8,213,1206,107,1218,69.3C1230.8,32,1243,64,1255,101.3C1267.7,139,1280,181,1292,192C1304.6,203,1317,181,1329,149.3C1341.5,117,1354,75,1366,58.7C1378.5,43,1391,53,1403,69.3C1415.4,85,1428,107,1434,117.3L1440,128L1440,0L1433.8,0C1427.7,0,1415,0,1403,0C1390.8,0,1378,0,1366,0C1353.8,0,1342,0,1329,0C1316.9,0,1305,0,1292,0C1280,0,1268,0,1255,0C1243.1,0,1231,0,1218,0C1206.2,0,1194,0,1182,0C1169.2,0,1157,0,1145,0C1132.3,0,1120,0,1108,0C1095.4,0,1083,0,1071,0C1058.5,0,1046,0,1034,0C1021.5,0,1009,0,997,0C984.6,0,972,0,960,0C947.7,0,935,0,923,0C910.8,0,898,0,886,0C873.8,0,862,0,849,0C836.9,0,825,0,812,0C800,0,788,0,775,0C763.1,0,751,0,738,0C726.2,0,714,0,702,0C689.2,0,677,0,665,0C652.3,0,640,0,628,0C615.4,0,603,0,591,0C578.5,0,566,0,554,0C541.5,0,529,0,517,0C504.6,0,492,0,480,0C467.7,0,455,0,443,0C430.8,0,418,0,406,0C393.8,0,382,0,369,0C356.9,0,345,0,332,0C320,0,308,0,295,0C283.1,0,271,0,258,0C246.2,0,234,0,222,0C209.2,0,197,0,185,0C172.3,0,160,0,148,0C135.4,0,123,0,111,0C98.5,0,86,0,74,0C61.5,0,49,0,37,0C24.6,0,12,0,6,0L0,0Z"></path></svg>